<svg width="64" height="64" viewBox="0 0 64 64" xmlns="http://www.w3.org/2000/svg">
    <defs>
        <linearGradient id="glossyRed" x1="0%" y1="0%" x2="100%" y2="100%">
            <stop offset="0%" style="stop-color:#ff6b81;stop-opacity:1" />
            <stop offset="50%" style="stop-color:#ff4757;stop-opacity:1" />
            <stop offset="100%" style="stop-color:#c0392b;stop-opacity:1" />
        </linearGradient>

        <linearGradient id="shine" x1="0%" y1="0%" x2="0%" y2="100%">
            <stop offset="0%" style="stop-color:#ffffff;stop-opacity:0.8" />
            <stop offset="100%" style="stop-color:#ffffff;stop-opacity:0" />
        </linearGradient>

        <filter id="dropShadow" x="-20%" y="-20%" width="140%" height="140%">
            <feGaussianBlur in="SourceAlpha" stdDeviation="2"/>
            <feOffset dx="1" dy="2" result="offsetblur"/>
            <feComponentTransfer>
                <feFuncA type="linear" slope="0.3"/>
            </feComponentTransfer>
            <feMerge>
                <feMergeNode/>
                <feMergeNode in="SourceGraphic"/>
            </feMerge>
        </filter>
    </defs>

    <path d="M32 58.5 C32 58.5 58 43 58 24.5 C58 15 50.5 8 41 8 C35.5 8 32 11.5 32 11.5 C32 11.5 28.5 8 23 8 C13.5 8 6 15 6 24.5 C6 43 32 58.5 32 58.5 Z"
          fill="url(#glossyRed)"
          stroke="#c0392b"
          stroke-width="1"
          filter="url(#dropShadow)"/>

    <path d="M18 14 C22 10 28 12 30 14 C25 18 18 24 16 20 C15 16 16 15 18 14 Z"
          fill="url(#shine)" />
</svg>
